<?xml version="1.0" standalone="no"?>
<!DOCTYPE svg PUBLIC "-//W3C//DTD SVG 20010904//EN"
 "http://www.w3.org/TR/2001/REC-SVG-20010904/DTD/svg10.dtd">
<svg version="1.0" xmlns="http://www.w3.org/2000/svg"
 width="1280.000000pt" height="640.000000pt" viewBox="0 0 1280.000000 640.000000"
 preserveAspectRatio="xMidYMid meet">
<metadata>
Created by potrace 1.16, written by Peter Selinger 2001-2019
</metadata>
<g transform="translate(0.000000,640.000000) scale(0.100000,-0.100000)"
fill="#000000" stroke="none">
<path d="M0 6121 l0 -278 72 -54 c39 -29 94 -68 122 -87 27 -20 82 -61 121
-92 38 -31 110 -85 158 -120 49 -34 132 -97 185 -139 54 -42 110 -85 127 -95
16 -11 34 -23 40 -28 111 -89 186 -143 246 -178 87 -52 158 -112 159 -137 1
-48 -32 -75 -43 -34 -2 10 -51 49 -108 86 -57 38 -113 77 -124 87 -11 11 -45
38 -76 61 -58 44 -154 119 -179 140 -8 6 -22 17 -32 22 -29 17 -269 199 -286
218 -9 9 -20 17 -25 17 -4 0 -86 61 -180 135 l-172 135 -3 -247 -2 -248 34
-30 c18 -16 53 -41 77 -54 23 -13 48 -28 53 -33 20 -17 201 -143 286 -200 173
-116 431 -297 467 -328 7 -5 14 -10 17 -10 5 0 268 -188 291 -208 6 -5 24 -17
40 -28 17 -10 68 -46 115 -79 47 -33 102 -66 123 -73 56 -20 125 4 231 80 48
35 106 73 128 86 39 21 43 21 60 5 10 -9 18 -19 18 -23 0 -4 -20 -23 -46 -41
-25 -19 -76 -58 -114 -87 -184 -140 -267 -135 -482 31 -48 37 -111 82 -140
101 -29 20 -91 63 -138 97 -47 34 -114 82 -150 107 -36 25 -97 69 -135 98 -39
28 -112 79 -163 113 -51 34 -108 75 -126 92 -19 16 -59 47 -89 67 -30 20 -118
84 -196 142 -78 58 -146 107 -152 108 -5 2 -9 -736 -9 -1966 l0 -1969 212 -6
c116 -4 293 -7 392 -7 174 0 234 3 631 35 99 8 243 17 320 19 473 13 640 16
1288 21 479 4 717 2 717 -4 0 -12 58 -3 76 10 6 5 13 6 16 3 8 -8 151 21 174
35 17 11 16 11 -11 7 -16 -3 -50 -7 -75 -10 l-45 -6 30 15 30 15 -35 -6 c-19
-3 -39 -10 -45 -14 -5 -4 -30 -10 -54 -14 -35 -5 -42 -4 -38 7 10 25 -15 37
-77 37 -56 -1 -59 -2 -42 -15 23 -17 14 -20 -14 -5 -10 5 -49 13 -87 18 l-68
7 0 47 c0 57 -9 67 -35 43 -17 -16 -25 -17 -40 -7 -11 7 -29 12 -41 12 -17 0
-19 3 -10 14 9 11 9 15 -1 18 -11 4 -11 9 0 29 9 17 10 33 3 57 -7 22 -7 42 0
59 7 19 6 28 -2 33 -18 12 13 19 33 9 12 -7 21 -4 30 9 9 12 27 18 53 19 22 0
65 6 95 13 30 6 78 15 105 19 49 7 50 7 18 15 -19 4 -47 3 -65 -3 -18 -5 -44
-10 -58 -9 -24 0 -464 -41 -664 -62 -94 -10 -118 -8 -103 7 4 3 78 14 164 24
87 10 176 21 198 24 22 3 91 12 153 19 62 7 116 16 119 20 11 11 -6 19 -19 9
-9 -6 -33 -3 -73 8 -33 10 -49 18 -37 18 13 1 37 11 54 22 35 25 24 39 -30 39
-27 0 -33 4 -30 17 2 12 11 17 26 15 12 -2 22 1 22 6 0 11 102 20 338 28 139
5 172 3 172 -8 0 -8 4 -7 11 4 5 10 17 18 26 18 14 0 15 30 10 273 -3 149 -8
282 -12 295 l-8 23 -377 -7 c-375 -7 -378 -7 -396 14 -9 11 -19 31 -20 44 -3
29 -73 486 -84 553 -5 28 -18 120 -30 205 -11 85 -24 178 -30 205 -5 28 -15
84 -23 125 -8 41 -17 103 -21 138 -5 57 -4 62 14 62 19 0 20 7 20 123 1 81 4
117 10 106 5 -9 28 -139 50 -290 68 -459 107 -712 118 -759 5 -25 22 -135 37
-245 16 -110 33 -206 40 -213 11 -12 101 -12 546 -2 468 10 913 23 1204 36
134 5 789 23 1485 39 338 8 672 18 743 21 126 7 127 7 127 -15 0 -21 4 -22 62
-19 57 3 63 5 68 28 5 20 14 26 45 31 22 4 41 3 43 -2 2 -5 10 -2 19 6 8 8 30
15 49 15 33 0 34 -1 34 -40 0 -27 -5 -42 -17 -49 -10 -5 -218 -14 -463 -20
-245 -7 -485 -14 -535 -16 -232 -12 -295 -18 -295 -28 0 -9 27 -60 127 -246
13 -24 37 -63 53 -87 17 -23 30 -45 30 -49 0 -10 76 -118 110 -155 17 -19 46
-55 63 -79 18 -24 59 -73 91 -107 33 -35 56 -67 53 -70 -8 -9 -67 16 -67 28 0
5 -5 6 -10 3 -6 -3 -10 2 -10 13 0 10 -26 48 -58 83 -92 102 -136 159 -180
234 -23 39 -58 95 -77 125 -19 30 -46 76 -59 101 -14 26 -31 53 -38 60 -7 8
-35 47 -63 88 l-50 73 -90 -6 c-49 -3 -228 -9 -398 -12 -174 -4 -310 -11 -313
-16 -4 -5 -17 -114 -30 -241 -13 -128 -28 -262 -34 -299 -16 -104 -12 -145 15
-200 50 -100 108 -124 364 -148 53 -6 130 -14 172 -19 41 -5 131 -15 198 -21
68 -6 134 -15 147 -20 29 -11 32 -45 5 -60 -17 -9 -870 -77 -1092 -87 -47 -3
-114 0 -150 6 -133 22 -404 71 -417 76 -7 2 -68 16 -136 30 -143 29 -202 57
-229 105 -17 31 -19 46 -12 125 4 50 6 105 6 123 -1 19 5 70 13 115 15 77 46
262 68 404 15 93 16 93 -104 93 -57 0 -139 -3 -183 -6 l-80 -7 3 -281 c3 -299
6 -336 25 -317 6 6 44 11 92 11 l80 0 -30 -25 c-16 -13 -37 -25 -45 -25 -13 0
-13 -1 0 -10 13 -9 12 -12 -4 -25 -16 -12 -17 -15 -4 -15 17 0 40 22 37 36 -3
19 2 28 9 17 6 -9 17 -5 43 17 65 55 83 30 19 -27 -22 -20 -37 -40 -34 -44 3
-5 -1 -6 -9 -3 -8 3 -20 -3 -28 -12 -12 -15 -12 -16 6 -11 11 3 33 9 48 13 19
4 25 10 19 16 -11 11 16 50 29 43 6 -4 13 -134 11 -217 0 -27 4 -38 14 -38 8
0 14 -5 14 -11 0 -5 5 -7 12 -3 7 4 8 3 4 -4 -4 -7 -14 -12 -22 -12 -8 0 -14
-4 -14 -9 0 -5 -13 -11 -28 -14 -16 -3 -39 -15 -53 -26 l-24 -19 30 -12 c17
-7 42 -14 56 -15 15 -1 36 -12 48 -24 24 -24 51 -28 51 -6 0 19 5 19 41 -2 36
-21 37 -33 3 -33 -14 0 -22 -4 -19 -10 3 -5 20 -6 38 -3 29 6 31 5 18 -10 -7
-10 -19 -16 -25 -16 -6 1 -19 -1 -30 -6 -11 -5 -21 -3 -26 5 -5 7 -10 8 -14 2
-6 -11 22 -27 39 -22 6 1 46 4 90 5 44 1 91 5 105 9 23 7 23 6 8 -7 -28 -22
-22 -27 34 -27 53 0 118 -18 118 -32 0 -4 8 -8 18 -9 13 0 14 -2 2 -6 -8 -3
-20 -12 -27 -20 -9 -12 -15 -12 -32 -2 -17 11 -23 10 -42 -6 -12 -11 -19 -14
-15 -7 5 8 0 12 -13 12 -12 0 -21 -4 -21 -9 0 -13 -46 -19 -64 -9 -10 5 -24 4
-37 -3 -12 -6 -24 -7 -28 -3 -3 5 -15 10 -26 11 -11 1 -38 4 -60 7 -29 4 -33
3 -15 -3 24 -8 24 -9 5 -17 -11 -5 -21 -15 -22 -21 -3 -15 6 -16 26 -4 16 10
51 -26 51 -51 -1 -17 -47 -51 -60 -43 -5 3 -19 -3 -31 -14 -18 -16 -22 -33
-23 -81 -1 -39 -7 -64 -15 -70 -10 -5 -4 -10 18 -15 53 -11 72 -25 186 -138
144 -141 203 -175 327 -188 51 -6 118 -10 148 -10 30 1 71 -3 90 -8 50 -13
-102 -13 -239 -1 -83 8 -112 15 -150 36 -44 26 -153 117 -233 195 -88 85 -95
88 -304 104 -229 18 -214 18 -214 1 0 -11 -8 -9 -38 5 -55 28 -125 38 -342 49
-356 18 -1048 7 -1231 -20 -282 -41 -343 -67 -246 -104 70 -26 126 -32 482
-47 208 -9 343 -9 585 0 173 7 335 12 359 11 86 -1 379 49 410 71 9 6 4 0 -11
-14 -30 -28 -78 -40 -238 -63 -167 -23 -325 -29 -800 -28 -468 2 -548 5 -696
28 -120 20 -176 42 -172 69 10 64 123 83 678 114 292 16 997 2 1120 -22 55
-11 312 -25 338 -18 25 6 24 7 -22 22 -41 13 -51 21 -58 46 -4 17 -5 43 -2 59
4 19 3 26 -5 22 -6 -4 -11 -2 -11 3 0 6 5 11 12 11 6 0 4 7 -5 18 -21 23 -22
62 -2 62 9 0 18 7 21 15 4 8 12 15 18 15 7 0 21 7 32 15 17 13 16 14 -21 9
-22 -4 -89 -15 -150 -26 -60 -11 -117 -21 -125 -22 -8 -1 -26 -5 -40 -9 -14
-3 -99 -20 -190 -37 -91 -17 -178 -35 -195 -40 -47 -15 -199 -50 -213 -50 -29
0 1 19 41 25 65 11 171 37 182 46 6 4 60 17 120 29 61 11 126 25 146 30 20 6
50 10 68 10 17 0 31 5 31 11 0 15 -247 9 -268 -8 -23 -17 -32 -16 -32 2 0 11
-9 14 -42 10 -24 -3 -353 -7 -733 -10 -810 -7 -1065 -13 -1255 -33 -275 -28
-449 -35 -813 -30 l-377 4 0 -602 0 -602 67 -6 c307 -25 777 -32 1065 -16 435
25 496 29 538 34 25 4 171 18 325 32 154 14 332 31 395 39 63 8 180 21 260 30
80 9 222 25 315 36 94 11 254 28 357 39 102 10 246 26 320 35 73 9 257 29 408
45 151 16 295 34 320 39 25 6 70 11 100 12 30 1 82 6 115 11 33 5 184 23 335
39 151 16 304 33 340 38 36 5 187 21 335 35 149 15 281 31 295 36 14 5 93 14
175 20 83 6 233 20 335 30 102 11 343 35 535 54 193 19 370 39 395 45 25 5 77
13 115 16 77 7 509 53 565 61 19 2 93 11 164 20 71 8 133 17 136 19 4 3 81 12
171 20 90 9 193 20 229 25 36 6 122 17 191 25 70 9 184 24 255 35 117 17 329
43 709 86 77 9 192 22 255 30 240 29 298 36 385 45 50 4 137 15 195 24 138 20
469 47 481 40 12 -8 11 -45 -2 -84 -10 -29 -14 -31 -62 -32 -29 0 -83 -4 -122
-9 -38 -5 -223 -25 -410 -45 -187 -19 -356 -39 -375 -45 -19 -5 -152 -21 -295
-36 -143 -14 -291 -30 -330 -35 -38 -4 -218 -24 -400 -43 -181 -19 -355 -40
-385 -45 -30 -6 -167 -22 -305 -37 -137 -14 -281 -30 -320 -35 -38 -6 -171
-21 -295 -34 -234 -25 -411 -45 -615 -70 -66 -8 -219 -23 -340 -35 -121 -11
-238 -25 -260 -30 -22 -5 -65 -11 -95 -14 -297 -25 -732 -68 -760 -76 -19 -5
-111 -17 -205 -25 -93 -9 -224 -22 -290 -30 -66 -8 -284 -33 -485 -54 -201
-22 -399 -45 -440 -52 -87 -13 -647 -76 -1060 -119 -157 -16 -301 -34 -320
-39 -19 -6 -132 -20 -250 -32 -118 -11 -262 -28 -320 -36 -58 -8 -124 -15
-148 -14 -24 1 -51 -3 -60 -9 -11 -6 1801 -9 5276 -10 l5292 0 0 2434 c0 1938
-3 2435 -12 2439 -10 4 -10 6 0 6 8 1 12 21 12 66 0 52 -3 63 -14 59 -8 -3
-12 -12 -9 -20 7 -18 -14 -44 -37 -44 -20 0 -35 15 -44 47 -9 29 25 63 62 62
15 0 21 -3 14 -6 -15 -6 -6 -23 14 -23 8 0 14 10 14 24 0 17 -7 26 -25 30 -15
4 -27 16 -31 30 -3 14 -12 27 -20 30 -8 3 -14 11 -14 17 0 7 9 5 25 -5 19 -13
30 -14 45 -6 23 12 27 25 5 17 -8 -4 -17 -2 -20 3 -4 6 3 10 14 10 17 0 21 6
21 32 0 30 0 31 -17 11 -15 -16 -24 -18 -53 -11 -19 5 -52 9 -72 8 -20 0 -39
4 -43 9 -4 7 -14 7 -30 1 -14 -5 -32 -7 -40 -4 -10 4 -15 0 -15 -14 0 -32 75
-47 86 -17 7 16 36 19 97 9 56 -10 44 -21 -20 -20 -50 1 -58 -1 -55 -16 2 -14
-4 -18 -33 -18 -47 0 -165 -23 -165 -32 0 -3 10 -9 23 -11 21 -4 21 -4 1 -6
-15 -1 -23 -9 -26 -26 -5 -23 -2 -25 29 -25 42 0 63 -35 45 -75 -9 -20 -19
-25 -46 -25 -45 0 -56 19 -57 102 -1 52 -3 57 -9 28 -11 -56 -15 73 -18 602
-3 356 -1 487 8 515 20 61 75 119 158 168 l77 45 -256 0 c-216 0 -259 -2 -269
-15 -7 -8 -17 -15 -22 -15 -6 0 -5 7 2 15 11 13 -40 15 -449 15 l-461 0 1
-245 0 -246 27 3 c25 3 26 0 27 -39 0 -32 -4 -43 -16 -43 -37 0 -48 -23 -51
-103 -3 -101 -17 -111 -17 -12 1 89 -10 109 -55 102 -17 -3 -56 -2 -86 3 -49
6 -44 7 47 9 l102 1 -4 28 c-5 24 -13 296 -14 475 l-1 67 -44 0 -44 0 1 -46
c1 -30 -3 -48 -10 -51 -9 -3 -13 10 -13 46 l0 51 -104 0 -104 0 4 -102 c4 -99
5 -104 34 -131 44 -40 50 -64 50 -203 0 -103 3 -126 15 -130 14 -6 14 -8 1
-18 -12 -9 -15 -50 -18 -213 l-3 -202 35 20 c31 18 30 15 -16 -28 -27 -26 -79
-72 -113 -102 -35 -30 -69 -69 -77 -87 -10 -24 -14 -104 -14 -331 l-1 -298
118 -6 c65 -4 137 -7 161 -8 23 0 42 -5 42 -11 0 -6 -123 -10 -350 -10 -302 0
-350 2 -350 15 0 12 29 15 178 17 l177 3 1 319 2 318 37 45 c36 43 45 72 10
33 -15 -17 -19 -17 -32 -4 -19 18 -30 10 -14 -10 10 -11 9 -16 -2 -23 -8 -4
-18 -17 -24 -27 -10 -19 -11 -18 -18 3 -3 11 -10 19 -15 16 -4 -3 -11 10 -14
29 -6 31 -10 34 -49 38 -23 3 -46 3 -51 0 -5 -3 -47 -5 -93 -4 -46 0 -83 -3
-83 -8 0 -9 40 -14 131 -15 20 0 37 -4 38 -10 0 -5 -36 -8 -88 -6 l-90 3 -3
-29 c-3 -26 -6 -28 -48 -29 l-45 -2 45 8 45 7 -42 1 c-36 2 -43 5 -43 22 0 17
-7 20 -39 20 -47 0 -64 -17 -24 -23 l28 -4 -27 -2 c-27 -1 -33 -12 -29 -48 1
-8 -11 -13 -31 -14 -59 -2 -63 -4 -60 -22 2 -13 -2 -18 -15 -15 -11 2 -18 13
-19 28 -1 14 -2 28 -4 33 -1 4 -3 12 -4 19 0 6 -6 13 -12 15 -14 5 -26 -50
-13 -55 13 -5 11 -38 -3 -54 -7 -7 -14 -24 -16 -38 -3 -35 -10 -50 -22 -50 -5
0 -10 11 -10 25 0 14 -4 25 -8 25 -10 0 -22 573 -22 1013 l1 297 -4437 0
-4437 0 73 -52 c161 -116 399 -290 465 -340 62 -47 108 -81 250 -181 22 -16
69 -50 105 -77 36 -27 96 -70 133 -95 37 -25 116 -82 174 -126 58 -44 113 -83
122 -87 9 -3 37 -21 63 -39 25 -19 49 -30 51 -26 6 10 -27 255 -48 358 -18 88
-55 374 -55 424 0 38 14 57 56 79 21 11 66 8 339 -24 66 -7 284 -29 485 -49
201 -19 381 -40 400 -45 19 -6 202 -26 405 -45 204 -20 453 -44 555 -55 102
-10 268 -26 370 -35 102 -9 223 -22 270 -30 47 -8 211 -26 365 -40 154 -13
303 -29 330 -35 28 -5 176 -22 330 -36 154 -14 307 -30 340 -35 33 -6 94 -14
135 -20 41 -6 85 -17 96 -24 23 -15 36 -58 54 -180 6 -44 16 -89 20 -100 5
-11 21 -90 35 -175 14 -85 31 -166 36 -180 7 -21 71 -361 83 -450 2 -14 11
-60 20 -102 22 -106 21 -113 -15 -129 -41 -16 -87 -56 -109 -92 l-18 -28 -33
45 c-53 75 -81 86 -243 96 -78 5 -160 10 -183 10 -24 0 -43 5 -43 10 0 7 55
10 165 8 l165 -4 -4 33 c-3 28 -1 33 15 28 24 -8 31 8 19 41 -11 28 -54 74
-70 74 -13 0 -18 23 -9 41 7 14 -5 17 -98 23 -58 3 -155 6 -215 6 -65 0 -108
4 -108 10 0 6 -10 10 -22 10 -22 1 -23 1 -4 15 25 19 36 19 36 0 0 -14 13 -20
34 -16 5 1 53 1 105 0 146 -2 225 1 235 12 6 6 3 9 -10 9 -10 0 -71 4 -134 9
-63 5 -189 13 -280 16 -91 4 -168 9 -173 12 -4 2 -5 9 -1 14 3 5 9 7 14 4 21
-13 567 -28 574 -16 13 21 -24 26 -194 28 -241 3 -400 13 -400 25 0 6 7 8 15
4 21 -8 582 -9 595 -1 20 12 10 26 -17 25 -74 -5 -104 0 -101 16 3 15 -17 17
-172 20 -215 4 -340 13 -340 24 0 8 45 6 138 -5 17 -2 32 0 32 5 0 4 -22 11
-50 15 -51 7 -80 25 -38 24 71 -1 213 -27 211 -37 -2 -7 2 -12 7 -12 6 0 10 5
10 11 0 11 128 7 183 -7 23 -5 26 -4 21 11 -4 10 -1 21 7 26 10 6 7 9 -13 9
-14 0 -29 -6 -31 -12 -3 -8 -6 -5 -6 6 -1 14 -6 17 -23 13 -12 -3 -31 -1 -42
6 -12 6 -28 12 -36 14 -54 11 -164 22 -217 23 -34 0 -68 3 -77 6 -26 10 -18
23 12 19 167 -23 428 -37 487 -27 41 7 19 9 -124 16 -95 4 -184 12 -198 17
-14 5 -81 11 -149 12 -113 2 -123 4 -128 22 -6 22 2 35 12 19 9 -14 80 -22
267 -30 83 -3 152 -8 156 -9 15 -10 203 -7 207 3 2 6 -5 8 -17 5 -12 -3 -27 0
-35 6 -13 11 -159 28 -306 35 -94 5 -87 3 -93 20 -5 12 26 13 199 10 192 -4
228 0 192 22 -7 5 -26 7 -43 5 -33 -2 -68 25 -63 50 2 10 -6 13 -26 11 -15 -2
-36 3 -45 11 -11 10 -48 15 -121 16 -69 2 -110 7 -120 15 -8 8 -20 11 -27 9
-15 -5 -26 14 -13 22 5 3 15 3 21 -1 17 -10 249 -17 249 -7 0 18 -19 36 -33
30 -8 -3 -19 -1 -24 4 -5 5 -35 10 -66 11 -39 1 -57 6 -57 15 0 10 19 11 80 8
69 -4 80 -3 80 11 0 11 -5 14 -16 10 -11 -4 -15 -2 -11 8 4 9 -2 17 -15 22
-11 3 -16 9 -10 13 10 6 101 6 136 -1 17 -3 19 4 20 54 1 59 -8 74 -35 57 -25
-16 -49 -10 -49 11 0 25 -17 26 -23 3 -4 -15 -6 -15 -12 4 -4 12 -14 23 -24
25 -10 2 -16 14 -17 33 -3 67 -5 75 -19 75 -8 0 -15 5 -15 10 0 12 48 33 59
26 4 -3 13 -1 21 5 11 6 7 9 -15 10 -16 0 -24 3 -17 6 48 19 -44 37 -328 63
-124 11 -247 25 -275 30 -45 9 -368 41 -710 71 -71 6 -139 15 -150 19 -11 5
-81 14 -155 20 -185 15 -500 47 -530 54 -14 3 -77 10 -140 15 -63 6 -162 15
-220 21 -58 6 -157 15 -220 20 -63 6 -131 14 -150 20 -19 5 -168 21 -330 35
-162 14 -329 30 -370 36 -193 26 -297 38 -324 39 l-29 0 6 -72 c3 -40 20 -163
37 -273 18 -110 49 -312 70 -450 22 -137 43 -268 49 -290 5 -22 21 -123 36
-225 14 -102 30 -196 35 -210 4 -14 11 -42 14 -62 l5 -38 -50 0 c-42 0 -49 3
-49 20 0 10 -4 29 -10 42 -5 13 -23 115 -40 228 -17 113 -32 214 -34 225 -2
11 -4 27 -5 36 0 8 -56 55 -123 104 -68 49 -174 126 -235 172 -62 46 -115 83
-118 83 -3 0 -52 35 -108 78 -117 87 -407 299 -440 322 -12 8 -76 54 -142 102
-66 48 -133 97 -150 108 -45 31 -319 233 -325 240 -3 3 -17 13 -32 23 -25 15
-66 17 -433 17 l-405 0 0 -279z m9870 -301 c0 -6 -346 -9 -947 -8 -522 1 -958
-1 -970 -6 -14 -4 -23 -3 -23 3 0 5 8 12 18 14 36 10 1922 7 1922 -3z m-868
-247 c16 -14 18 -33 19 -152 0 -75 3 -154 7 -176 l7 -40 230 -5 c230 -5 230
-5 278 -33 60 -36 115 -91 133 -133 10 -24 14 -82 14 -209 0 -149 -2 -177 -15
-182 -9 -3 -18 -3 -22 0 -3 3 -5 82 -4 176 1 135 -2 178 -14 208 -18 43 -62
93 -82 93 -7 0 -13 4 -13 9 0 23 -102 35 -305 36 l-210 0 -5 -86 c-3 -51 -11
-93 -19 -103 -12 -14 -46 -16 -298 -16 l-284 0 -15 35 c-8 19 -14 66 -14 105
l0 70 -223 0 c-219 0 -224 0 -275 -26 -60 -30 -108 -94 -117 -158 -4 -22 -10
-151 -14 -286 l-8 -245 1 275 c1 266 2 277 24 321 28 57 85 116 131 135 50 21
216 36 356 32 l120 -3 5 171 c4 124 9 176 19 187 12 15 45 17 294 17 247 0
283 -2 299 -17z m3433 -719 c-1 -31 3 -48 13 -51 11 -5 11 -7 0 -15 -8 -6 21
-8 80 -6 51 3 91 1 90 -3 -2 -4 -65 -39 -142 -78 -143 -73 -174 -93 -239 -155
-21 -20 -44 -36 -50 -36 -67 -1 -321 -24 -390 -35 -76 -13 -91 -19 -116 -47
l-28 -32 -32 27 c-38 31 -88 47 -154 47 l-48 0 20 29 c12 16 21 32 21 35 0 3
-45 6 -99 6 -56 0 -103 4 -106 10 -6 9 112 15 202 10 24 -1 44 8 75 33 97 78
184 120 293 142 17 4 42 11 57 17 15 5 132 13 260 16 l233 7 3 30 c4 30 22 61
22 36 0 -7 5 -9 10 -6 6 3 10 19 10 36 0 16 4 29 8 29 5 0 8 -21 7 -46z
m-8107 -311 c18 -25 15 -103 -7 -143 -10 -19 -34 -48 -54 -64 -30 -24 -39 -27
-52 -16 -23 19 -19 32 20 63 40 32 45 58 13 72 -34 15 -37 77 -6 99 26 19 66
14 86 -11z m2064 -215 l3 -242 25 -6 c21 -5 25 -12 25 -45 0 -38 -2 -40 -34
-43 -18 -2 -47 2 -63 9 -54 22 -58 43 -58 319 l0 250 50 0 50 0 2 -242z m1148
131 l0 -111 35 31 c31 27 43 31 95 31 51 0 64 -4 90 -27 41 -37 49 -79 50
-245 l0 -138 -55 0 -55 0 0 150 c0 148 0 150 -25 166 -38 25 -91 11 -115 -29
-17 -27 -20 -51 -20 -159 l0 -128 -50 0 -50 0 0 285 0 285 50 0 50 0 0 -111z
m2730 6 c0 -58 2 -105 5 -105 2 0 21 11 41 25 27 18 50 25 86 25 115 0 138
-43 138 -260 l0 -150 -50 0 -50 0 0 140 c0 136 -1 142 -25 165 -26 27 -51 31
-88 14 -44 -20 -51 -46 -55 -186 l-4 -133 -49 0 -49 0 0 285 0 285 50 0 50 0
0 -105z m-4658 71 c21 -8 49 -21 63 -30 27 -18 26 -25 -13 -75 l-19 -24 -31
23 c-37 28 -116 37 -152 18 -32 -17 -39 -67 -13 -90 10 -9 53 -24 96 -33 132
-29 182 -82 174 -183 -6 -90 -62 -140 -166 -149 -32 -3 -82 0 -110 7 -56 13
-131 62 -131 85 0 8 13 29 28 46 l28 31 33 -31 c78 -73 211 -60 211 20 0 46
-17 57 -145 89 -97 24 -149 84 -142 163 5 60 30 95 87 125 51 26 142 29 202 8z
m-2912 -96 l0 -101 123 3 122 3 3 98 3 97 49 0 50 0 0 -270 0 -270 -50 0 -49
0 -3 123 -3 122 -122 3 -123 3 0 -126 0 -125 -55 0 -55 0 0 270 0 270 55 0 55
0 0 -100z m1400 -170 l0 -270 -55 0 -55 0 0 270 0 270 55 0 55 0 0 -270z
m5090 238 c6 -18 36 -105 66 -193 31 -88 59 -164 63 -168 5 -4 38 82 76 192
l67 201 69 0 69 0 0 -270 0 -270 -50 0 -50 0 0 183 c-1 213 1 214 -81 -25
l-54 -158 -46 0 -47 0 -47 138 c-27 75 -56 155 -66 177 l-17 40 -1 -177 -1
-178 -50 0 -50 0 0 270 0 270 69 0 c69 0 69 0 81 -32z m-1062 -99 c30 -6 59
-20 73 -35 22 -24 24 -36 29 -157 5 -126 6 -132 26 -135 17 -2 23 -12 26 -38
2 -19 2 -37 -1 -39 -2 -3 -26 -5 -52 -5 -39 0 -51 4 -68 26 l-21 27 -26 -26
c-49 -50 -140 -48 -189 3 -24 25 -29 39 -29 81 0 45 4 55 32 80 17 15 51 33
74 38 110 27 123 34 123 66 0 29 -2 30 -50 33 -41 2 -58 -2 -88 -23 -21 -14
-40 -25 -42 -25 -3 0 -12 14 -20 31 -13 24 -14 33 -4 45 23 28 78 51 151 63 4
0 29 -4 56 -10z m1852 -9 c48 -26 55 -47 60 -184 5 -124 6 -131 26 -134 15 -2
24 -13 28 -34 8 -42 2 -48 -54 -48 -41 0 -52 4 -69 26 l-21 27 -26 -26 c-50
-50 -145 -48 -188 4 -21 24 -26 41 -26 84 0 47 4 56 30 79 17 14 50 30 73 36
109 26 122 33 122 65 0 29 -2 30 -50 33 -41 2 -58 -2 -89 -23 -41 -28 -41 -28
-67 18 -27 47 91 102 191 90 25 -3 52 -9 60 -13z m885 10 c24 -5 51 -21 68
-40 26 -29 27 -34 27 -144 0 -127 4 -146 30 -146 12 0 20 -10 24 -31 8 -43 2
-49 -54 -49 -41 0 -52 4 -70 27 -20 26 -22 26 -32 9 -23 -41 -115 -58 -168
-31 -42 22 -60 53 -60 105 0 77 36 108 147 130 69 14 86 27 81 62 -3 20 -10
23 -52 26 -39 3 -56 -2 -88 -23 -43 -28 -42 -28 -69 18 -18 31 35 72 111 88
50 10 60 10 105 -1z m667 0 c11 0 35 -15 54 -34 l34 -34 0 -115 c0 -128 4
-147 30 -147 12 0 20 -10 24 -31 8 -43 2 -49 -54 -49 -41 0 -52 4 -69 26 l-21
27 -24 -26 c-46 -50 -147 -48 -190 4 -38 45 -37 120 2 159 16 16 49 33 73 39
111 27 124 34 124 66 0 29 -2 30 -49 33 -39 3 -56 -2 -88 -23 -43 -28 -42 -28
-69 18 -7 13 -7 23 2 33 30 36 119 66 173 58 16 -2 37 -4 48 -4z m-8244 -207
l2 -203 -55 0 -55 0 0 198 c0 109 3 202 7 206 4 4 28 6 53 4 l45 -3 3 -202z
m1252 182 c0 -14 3 -25 6 -25 3 0 19 11 36 25 23 19 41 25 79 25 56 0 85 -12
112 -44 l17 -21 18 21 c25 32 55 44 106 44 57 0 88 -14 109 -50 14 -23 17 -57
17 -194 l0 -166 -50 0 -49 0 -3 152 c-3 152 -3 152 -29 167 -33 19 -74 8 -96
-25 -13 -20 -18 -57 -21 -160 l-5 -134 -48 0 -49 0 0 148 c0 135 -2 151 -20
167 -14 13 -28 16 -54 11 -59 -11 -66 -32 -66 -188 l0 -138 -55 0 -55 0 0 198
c0 109 3 202 7 205 3 4 26 7 50 7 39 0 43 -2 43 -25z m1370 -118 c0 -168 7
-187 70 -187 74 0 90 37 90 206 l0 124 50 0 50 0 0 -205 0 -205 -50 0 c-50 0
-50 0 -50 33 l0 32 -23 -27 c-39 -48 -107 -61 -173 -33 -55 23 -64 57 -64 245
l0 160 50 0 50 0 0 -143z m887 132 c134 -51 156 -294 33 -375 -105 -70 -266
-24 -306 88 -29 80 -8 206 42 249 54 47 162 65 231 38z m489 -5 c34 -16 64
-49 64 -69 0 -5 -15 -20 -33 -31 l-33 -22 -32 29 c-34 31 -69 36 -105 18 -28
-15 -35 -25 -47 -71 -14 -50 -2 -117 26 -145 36 -36 98 -32 136 9 29 31 29 31
64 15 40 -19 40 -22 14 -65 -52 -85 -206 -95 -289 -19 -73 68 -81 235 -14 309
51 56 175 77 249 42z m1172 -17 l3 -28 35 31 c30 26 43 30 90 30 122 0 144
-40 144 -260 l0 -150 -50 0 -50 0 0 133 c0 86 -5 141 -13 157 -29 57 -117 47
-143 -16 -9 -22 -14 -74 -14 -154 l0 -120 -50 0 -50 0 0 206 0 205 48 -3 c43
-3 47 -5 50 -31z m2732 -212 c0 -283 -5 -305 -67 -331 -33 -14 -115 -15 -128
-2 -2 2 -2 21 2 41 5 34 9 37 37 37 18 0 37 5 44 12 9 9 12 78 12 250 l0 238
50 0 50 0 0 -245z m660 211 c5 -27 6 -28 19 -12 38 46 134 61 192 30 50 -25
59 -64 59 -239 l0 -155 -49 0 -50 0 -3 151 c-3 135 -5 152 -22 165 -24 17 -56
18 -89 3 -44 -20 -51 -46 -55 -186 l-4 -133 -49 0 -49 0 0 198 c0 109 3 202 7
206 4 4 25 6 48 4 35 -3 40 -6 45 -32z m-8184 -264 c55 -36 40 -146 -30 -220
-30 -32 -48 -43 -60 -39 -31 12 -27 33 14 75 46 50 49 59 16 71 -60 23 -41
121 23 121 14 0 31 -4 37 -8z m3295 -64 c1 -7 1 -17 0 -21 -1 -5 3 -6 7 -3 5
3 18 -4 28 -15 30 -34 107 -68 164 -73 28 -2 53 -6 54 -8 2 -2 8 -28 14 -58 6
-30 14 -67 17 -82 4 -15 39 -59 77 -99 38 -39 67 -73 64 -76 -3 -3 -30 21 -60
53 -30 32 -57 57 -60 53 -3 -3 3 -54 12 -115 l18 -109 47 -3 c28 -2 47 1 47 7
0 6 -9 11 -20 11 -23 0 -24 4 -9 28 10 16 6 24 -20 51 -17 17 -31 39 -31 48 0
11 17 -3 46 -35 26 -29 49 -50 53 -47 3 4 8 93 11 198 l6 192 2 -206 2 -205
30 -22 c27 -21 40 -22 195 -22 153 0 166 1 163 18 -2 9 -14 19 -28 21 -14 1
-28 8 -32 15 -4 6 -8 98 -8 204 l0 192 55 0 55 0 0 36 0 36 34 -29 c42 -35 48
-74 40 -240 -6 -103 -10 -123 -23 -123 -22 0 -51 -54 -51 -96 l0 -34 265 0
265 0 0 225 c0 143 4 225 10 225 6 0 10 -82 10 -225 l0 -225 1268 0 1269 0 58
128 c31 70 63 132 69 138 6 6 30 16 53 22 74 22 123 106 123 214 l0 31 20 -25
c23 -30 78 -58 113 -58 37 0 39 -11 12 -66 -31 -64 -175 -376 -175 -380 0 -2
11 -4 24 -4 30 0 54 23 62 58 3 15 28 72 54 127 60 127 73 161 66 174 -3 5 10
26 29 47 19 20 35 41 35 45 0 5 9 13 21 20 20 10 21 9 14 -23 -4 -18 -13 -40
-19 -48 -7 -8 -25 -46 -40 -85 -16 -38 -50 -115 -76 -170 -26 -55 -51 -110
-55 -122 l-6 -23 413 -2 c359 -3 413 -5 413 -18 0 -13 -55 -15 -424 -18 -443
-2 -440 -2 -441 -44 0 -13 8 -18 26 -18 15 0 23 -4 19 -11 -4 -6 -19 -7 -36
-4 -27 6 -31 3 -54 -47 -28 -61 -31 -83 -10 -75 8 4 17 2 19 -2 3 -5 24 -5 46
-1 43 8 59 0 36 -19 -8 -7 -17 -8 -20 -3 -8 13 -126 -10 -126 -25 0 -8 12 -13
30 -13 52 0 32 -17 -27 -23 -32 -3 -59 -4 -62 -1 -3 2 11 37 31 77 20 39 42
88 49 107 7 19 18 42 26 51 23 27 16 49 -14 49 -26 -1 -33 -11 -107 -173 -44
-95 -85 -178 -93 -186 -9 -11 -36 -14 -110 -13 l-99 2 -12 -32 -13 -33 -10 25
c-14 34 -5 69 41 165 21 45 42 94 45 108 l7 25 -113 0 c-62 0 -115 4 -116 8
-2 5 52 8 119 7 l123 -2 20 42 c11 23 21 45 23 49 2 4 -512 8 -1142 8 -1017 0
-1145 -2 -1140 -15 4 -8 2 -15 -4 -15 -6 0 -12 6 -14 13 -3 8 -37 13 -111 15
l-107 4 0 -151 c0 -94 -4 -151 -10 -151 -6 0 -10 57 -10 150 l0 150 -265 0
-265 0 0 -102 c0 -57 4 -120 9 -140 10 -43 36 -75 44 -55 3 6 6 -7 6 -30 l1
-43 -65 0 c-63 0 -65 1 -61 23 19 85 26 145 28 237 l3 105 -149 3 -148 3 31
-40 c45 -56 38 -62 -10 -7 l-41 46 -100 0 -100 0 5 -37 c3 -21 15 -91 26 -157
10 -65 17 -125 14 -132 -7 -19 -20 -17 -27 4 -3 9 -3 0 0 -21 5 -37 5 -38 -23
-31 -15 4 -38 11 -50 15 -13 5 -28 7 -35 5 -7 -1 -10 -1 -5 1 4 3 7 17 7 33 0
19 -6 29 -20 33 -16 4 -20 13 -19 54 2 61 -9 102 -22 82 -15 -24 -26 8 -28 81
-2 32 -20 61 -28 42 -4 -10 -9 -8 -20 8 l-15 21 -667 -1 c-366 -1 -1115 -1
-1663 -1 -548 1 -1000 1 -1005 0 -4 -1 -25 -1 -45 0 -31 1 -38 5 -38 21 0 22
-47 21 2741 20 334 0 614 3 623 6 12 5 14 10 6 19 -10 12 -4 45 9 45 3 0 6 24
6 52 0 44 -3 54 -22 64 -25 12 -20 24 9 24 10 0 18 5 18 10 0 6 -9 10 -20 10
-15 0 -26 12 -39 40 -13 30 -20 37 -29 28 -9 -9 -15 -9 -24 0 -9 9 -8 12 5 12
12 0 17 8 17 30 0 21 -5 30 -16 30 -10 0 -14 7 -12 18 2 9 10 16 16 15 8 -2
12 14 12 47 0 33 -4 50 -12 50 -9 0 -8 4 2 10 12 8 12 12 2 18 -7 5 -10 16 -6
25 7 20 23 23 25 5z m-5433 -374 l602 -7 23 -23 c17 -16 30 -52 46 -126 12
-57 36 -164 52 -238 17 -74 32 -144 34 -155 2 -11 16 -76 30 -145 14 -69 34
-165 45 -215 11 -49 22 -106 24 -125 3 -19 10 -61 17 -92 12 -61 6 -112 -14
-105 -14 4 -22 77 -8 77 5 0 12 -6 15 -12 3 -7 3 -2 0 12 -10 42 -28 80 -39
80 -5 0 -3 5 5 10 13 8 12 10 -3 10 -16 0 -17 -6 -11 -47 7 -46 6 -47 -11 -29
-10 10 -20 35 -22 55 -3 31 -9 50 -43 121 -4 8 -25 17 -46 20 -27 4 -38 10
-36 19 3 12 0 12 -11 2 -11 -8 -16 -9 -19 -1 -4 13 -72 -13 -102 -38 -11 -10
-16 -12 -13 -5 5 7 -2 14 -15 18 -13 4 -32 15 -42 24 -14 12 -20 13 -23 4 -3
-7 -12 -13 -21 -13 -19 -1 -52 -59 -52 -91 0 -11 -4 -18 -9 -15 -5 3 -43 0
-85 -7 -46 -8 -82 -10 -91 -4 -10 5 -75 5 -158 -1 -78 -5 -149 -6 -157 -1 -8
5 -11 9 -7 9 4 0 -3 15 -17 33 -15 19 -26 38 -26 43 -1 19 -40 55 -51 48 -9
-5 -10 1 -5 22 15 68 16 83 6 89 -5 3 -10 16 -10 29 0 13 -6 36 -14 52 -8 16
-17 43 -19 59 -6 46 -45 46 -86 0 -17 -20 -31 -40 -31 -44 0 -5 -7 -11 -15
-15 -9 -3 -15 0 -15 9 0 8 7 15 15 15 19 0 19 19 0 44 -15 20 -15 20 -16 0 -1
-10 -1 -22 0 -26 2 -17 -28 -7 -34 10 -8 29 -53 45 -125 46 -70 2 -90 9 -90
32 0 23 -25 11 -28 -14 -4 -25 -17 -29 -25 -8 -4 9 -14 12 -25 9 -24 -6 -32 6
-36 54 -5 48 -36 61 -36 15 0 -40 -25 -98 -35 -82 -4 7 -2 16 6 21 12 7 12 12
1 26 -7 10 -15 26 -18 36 -4 9 -9 17 -13 17 -4 0 -13 35 -20 78 -14 85 -39
211 -51 257 -5 17 -11 60 -15 96 -10 103 -9 103 200 96 93 -4 441 -10 773 -13z
m8444 -631 l3 -77 25 37 c19 28 32 37 53 37 l29 0 -31 -39 c-17 -21 -31 -45
-31 -52 0 -8 14 -32 30 -53 36 -48 37 -56 6 -56 -16 0 -32 13 -52 42 l-29 42
-5 -40 c-4 -31 -10 -40 -27 -42 -23 -3 -23 -3 -23 137 l0 141 25 0 c23 0 24
-3 27 -77z m-3102 -35 c19 -56 33 -111 32 -122 0 -11 4 -26 10 -33 8 -10 5
-13 -15 -13 -19 0 -28 7 -36 30 -9 28 -13 30 -61 30 -48 0 -52 -2 -61 -30 -8
-22 -17 -30 -35 -30 -13 0 -24 2 -24 5 0 4 64 195 85 253 2 6 19 12 37 12 33
0 33 0 68 -102z m1598 80 c3 -14 -6 -17 -55 -20 l-58 -3 -3 -37 -3 -38 55 0
c49 0 56 -2 56 -20 0 -18 -7 -20 -55 -20 l-55 0 0 -55 c0 -52 -1 -55 -25 -55
l-25 0 0 135 0 136 82 -3 c69 -2 83 -6 86 -20z m793 12 c22 -12 25 -38 5 -46
-8 -3 -24 0 -36 6 -32 17 -72 4 -68 -22 2 -16 17 -26 58 -39 30 -10 56 -19 56
-19 1 0 7 -13 13 -28 15 -36 5 -78 -22 -97 -35 -24 -111 -19 -144 9 -27 23
-27 26 -11 42 16 16 19 17 36 1 18 -16 40 -22 75 -19 14 2 18 9 15 29 -3 22
-12 29 -58 44 -30 10 -56 19 -56 19 -1 0 -7 13 -13 28 -14 33 -2 75 26 91 23
13 99 14 124 1z m1114 -4 c42 -18 65 -61 65 -123 0 -96 -54 -138 -170 -131
l-55 3 -3 119 c-1 66 0 126 2 133 7 18 117 17 161 -1z m-975 -31 c0 -21 5 -25
30 -25 28 0 30 -2 20 -20 -6 -11 -20 -20 -30 -20 -17 0 -20 -7 -20 -54 0 -48
3 -56 23 -62 48 -15 43 -44 -8 -44 -47 0 -65 29 -65 102 0 45 -3 58 -15 58 -8
0 -15 9 -15 20 0 11 7 20 15 20 8 0 15 9 15 19 0 19 12 29 38 30 6 1 12 -10
12 -24z m-1251 -4 c11 -7 12 -13 3 -23 -7 -8 -9 -29 -6 -50 5 -30 2 -38 -21
-56 -15 -12 -41 -22 -56 -22 -31 0 -39 -14 -13 -24 9 -3 31 -6 49 -6 64 0 88
-61 39 -99 -31 -24 -120 -29 -146 -8 -25 20 -29 46 -10 65 9 9 16 27 14 40 -2
13 1 28 6 35 7 8 6 18 -4 31 -35 48 1 96 71 96 33 0 45 4 45 15 0 17 9 19 29
6z m-1068 -32 c33 -17 6 -38 -41 -32 -32 4 -40 2 -40 -10 0 -8 12 -18 28 -22
68 -16 93 -65 55 -107 -20 -22 -90 -25 -118 -4 -24 17 -13 52 13 41 9 -4 29
-10 45 -13 22 -3 27 -1 27 16 0 14 -9 21 -32 26 -62 12 -86 59 -51 98 18 20
82 25 114 7z m119 -1 c0 -9 3 -9 12 0 19 19 82 15 102 -7 35 -39 33 -124 -4
-161 -22 -22 -79 -27 -98 -8 -9 9 -12 0 -12 -40 0 -49 -2 -52 -25 -52 l-25 0
0 140 0 140 25 0 c14 0 25 -5 25 -12z m610 2 c0 -7 6 -7 19 0 29 15 72 12 93
-7 15 -13 18 -31 18 -100 0 -82 0 -83 -25 -83 -23 0 -24 3 -27 78 -3 73 -4 77
-27 80 -36 6 -51 -22 -51 -95 0 -61 -1 -63 -25 -63 l-25 0 0 100 0 100 25 0
c14 0 25 -5 25 -10z m750 -70 c4 -62 8 -75 23 -78 35 -7 47 17 47 89 0 67 1
69 25 69 l25 0 0 -100 c0 -92 -1 -100 -19 -100 -11 0 -23 5 -26 10 -4 7 -12 7
-25 0 -28 -15 -66 -12 -84 6 -12 12 -16 36 -16 100 0 83 1 85 23 82 20 -3 22
-10 27 -78z m1074 58 c10 -14 16 -44 16 -80 0 -32 4 -58 10 -58 6 0 10 -9 10
-20 0 -22 -20 -26 -52 -9 -14 8 -23 8 -31 0 -14 -14 -52 -14 -78 -1 -13 7 -19
21 -19 44 0 40 11 50 68 65 23 7 42 16 42 22 0 17 -32 23 -61 12 -22 -8 -31
-8 -39 2 -17 20 26 45 77 45 32 0 46 -5 57 -22z m230 3 c15 -16 15 -19 1 -31
-13 -11 -20 -11 -39 0 -52 27 -95 -25 -65 -79 18 -32 45 -38 68 -17 10 9 25
14 35 10 21 -8 20 -13 -6 -41 -30 -32 -87 -31 -125 1 -24 21 -28 32 -28 74 0
70 30 102 95 102 33 0 52 -6 64 -19z m775 2 c12 -11 22 -32 23 -53 l3 -35 -69
-5 -68 -5 20 -25 c19 -23 22 -24 57 -11 28 10 40 10 48 1 9 -9 6 -16 -12 -31
-33 -27 -93 -25 -128 5 -24 21 -28 32 -28 74 0 68 30 102 91 102 25 0 50 -7
63 -17z m122 -48 c20 -57 39 -84 39 -55 0 5 9 34 21 65 17 47 24 55 46 55 20
0 24 -4 18 -17 -4 -10 -20 -55 -37 -101 -29 -81 -31 -83 -60 -80 -28 3 -33 9
-58 78 -45 124 -45 120 -17 120 21 0 28 -9 48 -65z m319 38 c12 -15 20 -38 18
-52 -3 -24 -7 -26 -65 -29 -48 -2 -63 -7 -63 -18 0 -23 47 -40 71 -26 44 28
67 2 29 -33 -27 -25 -107 -16 -132 15 -28 35 -24 114 7 145 36 37 105 35 135
-2z m333 7 c47 -37 40 -141 -11 -169 -68 -36 -152 12 -152 87 0 61 38 102 95
102 27 0 51 -7 68 -20z m133 9 c4 -8 9 -8 17 0 6 6 28 11 49 11 28 0 41 -6 52
-22 50 -80 18 -178 -59 -178 -19 0 -37 5 -40 10 -13 20 -25 -2 -25 -46 0 -40
-2 -44 -25 -44 l-25 0 0 140 0 140 24 0 c14 0 28 -5 32 -11z m344 -16 c12 -15
20 -38 18 -52 -3 -24 -7 -26 -65 -29 -69 -3 -85 -22 -38 -44 19 -9 29 -8 49 5
22 15 25 15 37 0 33 -39 -79 -72 -128 -38 -32 23 -47 77 -33 120 15 45 44 65
96 65 34 0 47 -5 64 -27z m-992 -148 c10 -21 5 -39 -28 -124 -22 -54 -49 -138
-61 -186 -24 -94 -45 -119 -95 -113 -40 4 -63 50 -77 153 l-12 87 -100 -4
-100 -3 0 -32 c0 -18 -3 -33 -7 -33 -5 0 -8 16 -8 35 0 43 19 53 104 54 32 0
61 3 64 6 3 3 -13 5 -36 5 -31 0 -42 4 -42 15 0 12 14 15 69 15 l68 0 7 38 c5
31 45 92 60 92 2 0 10 -16 16 -35 l12 -36 56 3 57 3 15 43 c17 49 23 51 38 17z
m112 -70 c0 -2 -6 -22 -14 -42 -56 -157 -59 -218 -13 -296 30 -51 314 -361
370 -405 28 -21 69 -34 79 -24 6 6 21 6 36 1 15 -4 47 -12 71 -16 53 -9 59
-21 31 -56 -19 -23 -29 -27 -76 -27 -31 0 -54 -4 -54 -10 0 -6 17 -34 38 -63
37 -50 44 -87 18 -87 -7 0 -36 28 -64 63 -28 34 -61 74 -74 88 -13 14 -52 58
-88 98 -35 40 -87 89 -115 109 -27 20 -74 59 -104 86 -137 131 -166 171 -192
268 -12 43 -11 51 9 89 12 22 22 52 22 65 0 13 5 24 10 24 6 0 10 12 10 28 0
21 2 24 10 12 8 -12 10 -12 10 -1 0 24 50 101 65 101 8 0 15 -2 15 -5z m-2951
-157 c23 -24 43 -52 46 -63 6 -31 15 -332 9 -315 -3 8 -9 24 -14 35 -24 55
-30 93 -45 285 -3 36 -4 37 -17 52 -28 29 -40 48 -30 48 5 0 28 -19 51 -42z
m-5612 -268 c12 -25 22 -55 22 -67 1 -20 -4 -23 -36 -24 -125 -5 -221 -8 -508
-18 -176 -6 -435 -17 -575 -24 -279 -13 -535 -16 -545 -5 -4 3 -9 34 -12 68
l-6 61 34 -5 c19 -3 85 -8 148 -12 90 -5 115 -3 122 8 7 11 12 11 30 0 13 -9
38 -11 72 -8 29 3 151 8 272 11 120 3 223 9 228 14 5 5 34 7 65 4 32 -3 98 0
147 6 50 7 174 13 277 14 123 1 191 6 198 13 22 22 45 9 67 -36z m5549 -27
c13 -20 24 -49 24 -65 0 -34 -39 -78 -70 -78 -24 0 -80 51 -80 73 0 8 20 41
45 73 25 31 46 62 46 68 1 6 4 1 6 -12 3 -13 15 -39 29 -59z m1435 -13 l929 0
0 -29 c0 -16 -8 -37 -17 -47 -16 -15 -35 -16 -188 -11 -93 4 -513 7 -932 7
l-762 0 -21 22 c-11 12 -19 29 -18 37 3 16 44 32 66 25 8 -2 432 -4 943 -4z
m-2209 -509 c2 -7 94 -18 166 -21 6 0 12 -7 12 -15 0 -11 -13 -14 -60 -12 -33
2 -60 -1 -60 -6 0 -4 -4 -5 -10 -2 -5 3 -12 -6 -16 -21 -4 -16 -9 -22 -14 -14
-5 8 -9 7 -13 -4 -4 -11 -1 -16 11 -16 15 -1 15 -2 -2 -15 -15 -12 -52 -15
-158 -15 -85 0 -138 4 -138 10 0 6 13 10 29 10 20 0 30 6 34 20 3 13 14 20 30
20 14 0 29 5 33 11 3 6 19 9 35 7 26 -4 29 -2 29 22 0 22 6 28 38 37 50 14 50
14 54 4z m58 -197 c0 -8 -90 -13 -307 -16 -215 -3 -315 -8 -330 -17 -24 -12
-55 -66 -67 -114 -5 -23 -2 -29 16 -37 23 -9 23 -9 1 -9 -12 -1 -28 -4 -36 -7
-12 -4 -13 2 -6 41 11 58 34 106 63 134 20 19 40 23 142 29 190 12 524 9 524
-4z m3015 -25 c79 -20 224 -81 248 -105 16 -15 27 -41 30 -67 3 -23 9 -56 12
-73 l7 -31 -71 -11 c-102 -17 -154 -15 -179 7 -35 30 -28 40 20 29 50 -11 77
0 101 42 22 36 21 62 0 89 -14 17 -36 24 -103 31 -110 13 -123 12 -143 -2 -16
-12 -14 -16 13 -45 30 -32 38 -53 21 -53 -5 0 -12 9 -16 19 -8 28 -65 86 -100
104 -41 21 -114 30 -150 18 -28 -9 -26 -9 20 -10 36 -1 65 -10 102 -31 55 -32
73 -50 49 -50 -8 0 -18 5 -21 10 -4 6 -24 19 -45 30 -84 43 -296 11 -395 -58
-18 -13 -17 -13 18 -7 24 4 37 3 33 -3 -3 -5 -18 -12 -33 -14 -16 -3 -37 -9
-48 -13 -18 -8 -18 -7 -6 8 16 20 12 21 -23 7 -14 -5 -26 -6 -26 -1 0 5 11 12
25 15 13 3 46 19 72 34 57 33 149 72 171 72 9 0 23 6 31 14 20 17 118 46 191
56 59 9 131 4 195 -11z m-1102 -240 c91 -35 129 -98 60 -100 -15 0 -93 -7
-173 -14 -194 -20 -408 -39 -745 -69 -154 -13 -287 -27 -295 -30 -8 -3 -98
-10 -200 -16 -102 -6 -246 -18 -320 -26 -74 -9 -185 -17 -246 -18 -61 -2 -116
-6 -122 -10 -6 -3 -16 2 -21 13 -8 15 -7 20 5 25 9 3 20 3 25 0 15 -9 119 7
119 18 0 6 -6 8 -12 5 -7 -2 -22 -1 -33 3 -19 7 -18 9 7 19 32 12 71 19 115
20 24 1 31 5 27 15 -4 11 4 16 28 20 65 10 315 36 443 46 324 25 409 32 545
45 200 20 332 33 485 46 72 6 153 15 180 19 28 4 55 8 62 9 6 0 36 -9 66 -20z
m-3649 -703 c553 -29 615 -34 641 -53 19 -14 17 -15 -22 -9 -84 12 -297 26
-628 41 -187 8 -410 21 -495 28 -138 11 -148 13 -95 18 33 4 78 5 100 3 22 -3
246 -15 499 -28z"/>
<path d="M6657 4310 c-54 -42 -60 -158 -12 -206 28 -28 88 -32 122 -9 42 29
54 151 20 196 -32 42 -90 50 -130 19z"/>
<path d="M1020 3247 c0 -21 -24 -27 -75 -20 -38 5 -45 3 -45 -11 0 -14 -3 -14
-20 -4 -10 7 -22 9 -25 6 -13 -13 25 -66 59 -82 42 -20 40 -20 82 0 40 19 73
77 57 102 -13 22 -33 27 -33 9z"/>
<path d="M10270 2980 l0 -90 38 0 c43 0 55 6 71 37 26 50 5 116 -42 133 -65
22 -67 19 -67 -80z"/>
<path d="M4755 2621 c-50 -6 -50 -6 -48 -41 2 -42 20 -56 84 -65 37 -5 56 -3
74 9 29 19 59 72 51 92 -6 15 -63 17 -161 5z"/>
<path d="M4410 2610 c-96 -3 -180 -9 -186 -13 -16 -10 -23 -52 -14 -90 l8 -32
1 29 c1 25 3 27 18 15 9 -8 14 -9 10 -3 -4 7 3 14 18 17 16 3 29 -1 34 -10 11
-21 72 -8 64 13 -3 8 1 14 11 14 9 0 16 -7 16 -15 0 -17 6 -18 35 -5 l20 9
-20 2 c-11 1 -2 5 20 8 22 3 39 11 38 16 -1 6 37 10 95 10 82 0 97 3 100 16 4
22 -43 26 -268 19z"/>
</g>
</svg>
